<?xml version="1.0" standalone="no"?>
<!DOCTYPE svg PUBLIC "-//W3C//DTD SVG 20010904//EN"
 "http://www.w3.org/TR/2001/REC-SVG-20010904/DTD/svg10.dtd">
<svg version="1.0" xmlns="http://www.w3.org/2000/svg"
 width="600.000000pt" height="600.000000pt" viewBox="0 0 600.000000 600.000000"
 preserveAspectRatio="xMidYMid meet">
<metadata>
Created by potrace 1.14, written by Peter Selinger 2001-2017
</metadata>
<g transform="translate(0.000000,600.000000) scale(0.100000,-0.100000)"
fill="#000000" stroke="none">
<path d="M2665 5038 c-77 -14 -90 -18 -136 -41 -36 -17 -53 -21 -80 -14 -59
14 -220 9 -279 -9 -37 -11 -100 -17 -195 -18 -77 -1 -151 -5 -164 -9 -99 -27
-164 -60 -223 -115 -44 -41 -88 -123 -88 -166 0 -43 -9 -53 -55 -62 -136 -24
-265 -130 -306 -249 -7 -22 -30 -65 -50 -95 -61 -92 -80 -140 -86 -215 -7 -90
14 -168 69 -250 l40 -60 0 -1230 c0 -739 4 -1240 10 -1255 24 -63 108 -117
255 -163 79 -25 231 -59 323 -72 25 -3 70 -10 100 -15 30 -5 82 -12 115 -15
33 -3 85 -8 115 -11 30 -3 73 -7 95 -9 290 -27 1156 -28 1395 0 19 2 70 7 113
10 43 4 86 8 95 10 9 1 44 6 77 9 33 4 96 13 140 21 44 7 98 16 120 20 101 14
310 79 364 113 47 28 90 75 100 106 5 17 9 198 9 401 0 204 1 377 1 386 1 14
17 16 114 16 61 0 135 3 162 7 106 16 196 81 241 172 l27 56 0 656 c0 362 -3
675 -7 697 -10 51 -26 82 -68 125 -65 69 -137 101 -243 105 -38 2 -76 4 -82 4
-7 1 -13 13 -13 29 0 32 -23 121 -38 147 -7 14 -4 29 12 59 16 31 21 58 21
111 -1 87 -24 136 -101 210 -36 35 -54 61 -54 77 0 40 -49 126 -96 167 -56 49
-121 81 -219 108 -55 15 -220 10 -285 -8 l-67 -18 -44 41 c-126 120 -374 158
-564 87 l-52 -19 -49 46 c-109 103 -302 153 -469 122z m1946 -1576 c1 -4 2
-225 3 -492 1 -450 0 -486 -16 -502 -10 -10 -28 -18 -40 -18 l-23 0 1 508 c1
280 4 514 8 520 7 11 65 -3 67 -16z"/>
</g>
</svg>
